<svg width="22" height="26" viewBox="0 0 22 26" fill="none" xmlns="http://www.w3.org/2000/svg">
<path d="M8.65058 14.7159L6.86081 25.4546H1.11032e-05L4.22586 1.3113e-05H10.8381L9.19745 9.99291H9.39632C10.0178 8.77487 10.8878 7.82613 12.0064 7.14668C13.125 6.45894 14.3928 6.11507 15.8097 6.11507C17.152 6.11507 18.2706 6.42165 19.1655 7.03481C20.0604 7.64798 20.6943 8.49315 21.0671 9.57033C21.44 10.6475 21.5104 11.8821 21.2784 13.2742L19.2401 25.4546H12.3793L14.169 14.7159C14.3182 13.7713 14.198 13.0297 13.8086 12.4911C13.4274 11.9525 12.8019 11.6833 11.9318 11.6833C11.3684 11.6833 10.8547 11.8075 10.3906 12.0561C9.93491 12.2964 9.55375 12.6444 9.24717 13.1002C8.94888 13.5476 8.75001 14.0862 8.65058 14.7159Z" fill="black"/>
</svg>
